<svg version="1.1" id="Layer_1" xmlns="http://www.w3.org/2000/svg" xmlns:xlink="http://www.w3.org/1999/xlink" x="0px" y="0px"
	 width="100%" viewBox="0 0 500 500" enable-background="new 0 0 500 500" xml:space="preserve">
<path fill="none" opacity="1.000000" stroke="none"
	d="
M501.000000,244.000000 
	C501.000000,328.666656 500.973358,412.833313 501.095947,496.999786 
	C501.100952,500.423950 500.423828,501.096954 497.000000,501.094696 
	C333.000092,500.986237 169.000122,500.986267 5.000242,501.094696 
	C1.576934,501.096954 0.903020,500.424194 0.905286,497.000122 
	C1.013783,333.000214 1.013753,169.000244 0.905353,5.000361 
	C0.903091,1.577313 1.575445,0.903006 4.999762,0.905272 
	C168.999649,1.013778 332.999603,1.013757 496.999512,0.905370 
	C500.422272,0.903108 501.101471,1.574483 501.096130,4.999730 
	C500.971741,84.499672 501.000000,163.999863 501.000000,244.000000 
z"/>
<path fill="#5DE1E6" opacity="1.000000" stroke="none"
	d="
M49.764122,139.331482 
	C50.426319,129.102661 55.492912,121.454567 61.332855,114.148811 
	C68.932327,104.641876 80.085426,100.157364 90.044922,94.072647 
	C103.169556,86.054199 116.704033,78.709160 130.005005,70.976074 
	C143.447632,63.160625 156.678879,54.971138 170.257080,47.401794 
	C190.203796,36.282242 209.386734,23.818533 229.846680,13.609746 
	C235.267014,10.905190 241.014679,9.405861 247.469589,8.961996 
	C249.979004,8.064472 252.160309,8.668607 254.711975,8.763931 
	C274.263580,11.442959 288.933075,23.405073 304.952728,32.474113 
	C320.521759,41.288082 336.044098,50.185913 351.522369,59.158352 
	C364.633270,66.758469 377.646179,74.527542 390.713013,82.203766 
	C403.089142,89.474220 415.373779,96.909019 427.892181,103.926308 
	C440.750763,111.134315 448.014160,122.314796 452.012970,136.441925 
	C452.906769,138.199921 452.290131,139.754349 452.680817,141.548798 
	C452.885986,142.060623 452.946960,142.227646 453.037872,142.659668 
	C453.610840,143.841293 453.487091,144.858383 453.486664,145.848953 
	C453.457764,216.953049 453.559784,288.057190 453.250458,359.622650 
	C452.654541,369.922485 447.987823,378.036987 442.629456,385.873199 
	C436.133392,395.373199 426.032135,400.189056 416.568665,405.772949 
	C399.178802,416.033722 381.693939,426.133575 364.237030,436.280457 
	C349.151184,445.049133 334.035217,453.766113 318.958313,462.550018 
	C305.278839,470.519714 291.735931,478.731018 277.924103,486.462982 
	C272.334991,489.591827 266.218750,491.806793 259.424988,492.906586 
	C257.931519,492.264587 256.760803,492.536377 255.297409,492.697205 
	C254.982117,492.845306 254.554169,493.009399 254.325684,493.026978 
	C252.699768,493.838959 251.188385,493.382996 249.321625,493.248474 
	C236.186401,493.524567 225.912079,487.204407 215.536362,481.067017 
	C202.451309,473.327026 189.298340,465.701599 176.163071,458.046661 
	C160.527771,448.934723 144.880676,439.843018 129.237762,430.744171 
	C113.996841,421.879089 98.935883,412.683167 83.454765,404.259430 
	C71.458702,397.732025 60.874630,389.963074 54.357265,377.692993 
	C51.941959,373.145691 49.653912,368.399261 49.974216,362.539825 
	C49.296837,361.048645 49.516865,359.853882 49.517265,358.704590 
	C49.542831,285.732239 49.438343,212.759857 49.764122,139.331482 
z"/>
<path fill="none" opacity="1.000000" stroke="none"
	d="
M49.568909,139.078094 
	C49.975613,199.485764 49.981609,260.096130 49.996464,320.706482 
	C49.999767,334.194183 50.034233,347.681915 50.008415,361.643890 
	C48.231945,361.348053 49.016418,359.803223 49.015747,358.624908 
	C48.974194,286.002716 48.974850,213.380508 48.980568,140.758301 
	C48.980606,140.265793 49.105049,139.773285 49.568909,139.078094 
z"/>
<path fill="none" opacity="1.000000" stroke="none"
	d="
M453.446594,359.871490 
	C453.039917,288.011780 453.018372,215.939514 453.032349,143.395966 
	C454.734131,143.741791 453.962891,145.272064 453.963562,146.451508 
	C454.003662,217.026047 453.998444,287.600586 453.990021,358.175140 
	C453.989960,358.669739 453.886780,359.164337 453.446594,359.871490 
z"/>
<path fill="none" opacity="1.000000" stroke="none"
	d="
M254.941040,8.607412 
	C253.015778,8.991653 250.904144,9.012054 248.342285,8.996042 
	C250.014862,7.142177 252.438812,8.210794 254.941040,8.607412 
z"/>
<path fill="none" opacity="1.000000" stroke="none"
	d="
M249.077301,493.401764 
	C250.357986,493.029053 251.796753,493.004272 253.666351,493.012024 
	C252.700989,494.826660 250.902374,493.834473 249.077301,493.401764 
z"/>
<path fill="#C5F4F6" opacity="1.000000" stroke="none" 
	d="
M452.887421,141.501587 
	C451.720856,140.627853 452.066193,139.064346 451.973999,137.213501 
	C453.959381,137.894745 452.615631,139.687256 452.887421,141.501587 
z"/>
<path fill="#9FEDF0" opacity="1.000000" stroke="none" 
	d="
M255.384018,492.910461 
	C256.064911,491.787689 257.296143,491.825287 258.810913,492.601410 
	C257.947083,492.890015 256.866486,492.932831 255.384018,492.910461 
z"/>
<path fill="#ffffff" opacity="1.000000" stroke="none"
	d="
M250.720795,29.268513 
	C251.059509,29.082153 251.489716,29.021210 251.705780,29.043941 
	C253.622330,29.975540 255.478424,29.253622 257.556702,29.789803 
	C270.856445,35.006565 282.098541,43.208347 294.192322,49.834167 
	C308.238708,57.529755 321.906281,65.915634 335.757416,73.969025 
	C350.578827,82.586563 365.423157,91.164589 380.256195,99.762100 
	C392.151367,106.656799 403.983673,113.662933 415.958496,120.416367 
	C425.103912,125.574066 430.372528,133.233002 432.038727,143.515900 
	C432.189911,144.448822 432.672394,145.328049 433.083405,146.629791 
	C433.640137,148.142517 433.485687,149.320663 433.485382,150.476364 
	C433.467255,218.323410 433.540771,286.170471 433.310120,354.494141 
	C431.451447,361.531342 429.897400,367.958527 425.326752,373.547150 
	C421.781494,377.881958 417.459595,380.776947 412.921173,383.477997 
	C397.044678,392.926910 381.046661,402.172699 365.053314,411.423920 
	C349.481415,420.431305 333.831085,429.303131 318.265686,438.321716 
	C302.135651,447.667389 286.105194,457.185608 269.942383,466.473785 
	C266.030121,468.722015 261.985504,470.853882 257.158691,472.098022 
	C253.512863,472.827148 250.224823,472.366943 246.525574,472.312988 
	C239.045837,471.979065 233.718719,467.632202 228.002274,464.405762 
	C213.676575,456.320190 199.488388,447.989594 185.287521,439.684601 
	C169.824844,430.641724 154.456131,421.437531 138.960663,412.451569 
	C125.142860,404.438477 111.174988,396.684448 97.341270,388.698456 
	C91.894524,385.554138 86.389267,382.419067 81.345787,378.691101 
	C74.761017,373.823853 71.525681,366.727203 69.933640,358.409729 
	C69.358078,356.904602 69.514374,355.723511 69.514648,354.565704 
	C69.531311,284.413544 69.462105,214.261398 69.681671,143.630951 
	C72.112534,135.328201 75.621635,128.108856 82.381470,123.287773 
	C88.013428,119.271080 94.148315,115.945808 100.137886,112.446861 
	C118.393097,101.782669 136.653046,91.125793 154.974182,80.575516 
	C169.519211,72.199730 184.194382,64.049973 198.741959,55.678539 
	C210.911697,48.675438 223.003922,41.536350 235.076248,34.366192 
	C237.875504,32.703613 240.889282,31.672428 244.084778,30.229504 
	C246.259888,29.083361 248.354507,29.746098 250.720795,29.268513 
z"/>
<path fill="#D4F8F9" opacity="1.000000" stroke="none" 
	d="
M69.591141,143.478485 
	C69.879860,145.648865 69.993263,148.145081 69.993073,150.641281 
	C69.987946,219.453873 69.971260,288.266449 69.899902,357.549408 
	C68.598923,356.402679 69.027344,354.496399 69.026642,352.710999 
	C68.999992,284.730469 69.001701,216.749954 69.019348,148.769440 
	C69.019775,147.114365 69.243378,145.459366 69.591141,143.478485 
z"/>
<path fill="#7EE7EB" opacity="1.000000" stroke="none" 
	d="
M433.415710,354.643768 
	C433.110962,352.480255 433.007111,349.989746 433.007050,347.499237 
	C433.005280,280.983337 433.014252,214.467438 433.093567,147.489441 
	C434.330353,148.280441 433.987213,149.842422 433.987488,151.304794 
	C434.000366,217.992462 433.999939,284.680145 433.984497,351.367798 
	C433.984283,352.350830 433.776062,353.333771 433.415710,354.643768 
z"/>
<path fill="#CEF6F8" opacity="1.000000" stroke="none" 
	d="
M246.412445,472.406769 
	C249.370148,472.134125 252.640594,472.095459 256.341217,472.123077 
	C253.480103,473.618408 250.102875,473.134796 246.412445,472.406769 
z"/>
<path fill="#DBF9FA" opacity="1.000000" stroke="none" 
	d="
M250.651245,29.034004 
	C249.287628,30.981361 247.048538,29.587305 244.662292,29.909248 
	C246.102493,28.539543 248.230011,29.143368 250.651245,29.034004 
z"/>
<path fill="#CEF6F8" opacity="1.000000" stroke="none" 
	d="
M257.615967,29.737450 
	C256.005890,29.936544 254.133530,29.867130 252.091507,29.432194 
	C253.750931,28.951157 255.588364,28.722870 257.615967,29.737450 
z"/>
<path fill="#5EE1E6" opacity="1.000000" stroke="none" 
	d="
M395.697632,268.597961 
	C395.856018,269.039307 396.012268,269.446045 396.024078,269.663574 
	C397.010620,273.976501 396.285706,278.127441 396.238037,282.684296 
	C396.035797,283.118958 396.012268,283.558319 395.934143,283.763977 
	C395.074280,291.082245 395.641174,298.214172 395.838654,305.676270 
	C396.127747,306.015869 395.980438,306.011444 395.980042,305.937744 
	C401.050476,307.283661 406.239441,306.088287 411.759705,306.771851 
	C412.166260,306.984772 412.548370,306.990784 412.720764,307.073181 
	C414.136261,311.115509 413.218506,315.174194 413.266479,319.615356 
	C412.897491,320.791840 412.351532,321.012207 411.343109,321.066956 
	C395.970795,321.937744 380.905426,321.318573 365.388641,321.258118 
	C364.931915,321.075409 364.517761,321.026855 364.326050,320.944885 
	C362.805603,316.551361 363.783081,312.139038 363.757935,307.347351 
	C363.953308,306.915649 363.988007,306.988007 363.952209,306.969849 
	C368.003479,305.937134 372.165375,306.818634 376.691376,306.298950 
	C377.104309,306.134460 377.423523,305.982208 377.599060,306.003510 
	C379.072510,304.997467 378.478363,303.557037 378.480042,302.317139 
	C378.517456,274.391937 378.516357,246.466705 378.484558,218.541534 
	C378.483124,217.286636 379.005341,215.858276 377.405426,214.951996 
	C377.042389,215.092590 377.010498,215.028656 377.045715,215.022598 
	C376.811005,215.215057 376.563568,215.438217 376.195831,215.893463 
	C374.321289,223.851547 370.685211,230.925995 367.833405,238.252075 
	C359.414246,259.880127 350.442871,281.293243 341.351410,302.953400 
	C340.490601,303.468475 340.506989,304.070740 340.193665,304.828064 
	C340.051727,305.069885 340.003784,305.008514 340.039429,305.024139 
	C339.783051,305.254517 339.494263,305.473572 338.952240,305.787170 
	C338.016205,306.252899 337.336731,306.628479 336.355133,307.040527 
	C334.669678,307.803772 333.190002,307.398651 331.349457,307.261292 
	C326.549927,307.018158 324.546539,303.681885 323.250641,300.458435 
	C312.923126,274.769989 302.835388,248.985138 292.645538,223.241196 
	C291.522736,220.404572 290.219757,217.639252 288.970184,214.463013 
	C286.288757,214.272095 287.564453,216.361816 287.563049,217.448288 
	C287.524811,246.762558 287.387054,276.077148 287.890320,305.705444 
	C288.211182,306.019440 288.575409,305.982269 288.741699,306.058777 
	C293.009552,306.989441 297.166504,306.233795 301.685791,306.756897 
	C302.085449,306.952087 302.012207,306.989838 302.031982,306.953674 
	C302.967834,311.270355 302.329437,315.667450 302.182007,320.448059 
	C301.938660,320.852509 301.517181,321.017639 301.292694,321.046448 
	C291.159698,322.022156 281.227905,321.283020 271.308411,321.469269 
	C266.173523,321.565674 261.034058,321.548950 255.434113,321.278931 
	C254.362167,320.952301 253.753204,320.791962 253.021118,320.334930 
	C252.075867,315.962616 252.670181,311.847961 252.758820,307.321289 
	C252.953690,306.516052 253.117264,306.242798 253.695892,306.107758 
	C259.170044,306.445648 264.418823,307.363525 269.773499,305.228210 
	C269.973969,304.160156 269.974487,303.461456 269.948456,302.414337 
	C269.391876,301.146759 269.512512,300.131805 269.513336,299.142181 
	C269.540619,266.047821 269.442474,232.953384 269.740326,199.396698 
	C269.939423,198.519043 269.957123,198.103745 269.949280,197.377472 
	C265.236420,195.745316 260.440186,196.903625 255.310059,196.247467 
	C254.317017,195.915237 253.729050,195.777542 253.029816,195.350281 
	C252.049576,190.993454 252.683746,186.882156 252.746857,182.356934 
	C256.127655,179.842316 259.675873,181.533081 263.459137,180.958710 
	C270.323883,180.016785 276.773621,180.699554 283.651367,180.753876 
	C291.957611,180.937759 294.507263,186.769806 296.947906,192.679611 
	C305.061249,212.325378 313.205719,231.958557 321.225403,251.642578 
	C324.318604,259.234741 327.082306,266.960663 330.056549,274.602112 
	C330.788971,276.483856 331.757935,278.273560 332.893341,280.691589 
	C338.435150,267.016296 343.668671,254.072906 348.924652,241.138672 
	C356.277924,223.043335 363.510529,204.896698 371.118347,186.908859 
	C372.781799,182.975800 376.632507,181.030807 381.506683,180.959488 
	C391.343231,179.993530 400.806000,180.713394 410.700012,180.770691 
	C411.573975,181.292587 412.004761,181.604279 412.683380,182.037292 
	C414.094818,186.146988 413.240356,190.220428 413.243286,194.676636 
	C412.661621,196.358078 411.602783,195.935760 410.405212,196.054932 
	C407.002625,196.933441 403.889130,196.329788 400.372620,196.262833 
	C398.634064,195.530807 397.929077,197.017120 396.438446,197.051605 
	C395.161713,197.856750 395.501831,198.919281 395.502594,199.870590 
	C395.520325,222.632614 395.427002,245.394699 395.697632,268.597961 
z"/>
<path fill="#5EE1E6" opacity="1.000000" stroke="none" 
	d="
M156.325867,273.238098 
	C149.720688,273.034729 143.557297,273.111877 137.397491,272.997162 
	C134.293854,272.939423 132.104996,273.934448 130.994980,276.981903 
	C127.681580,286.078461 124.322205,295.158295 120.906616,304.636292 
	C120.726494,306.965790 122.211945,306.458984 123.211464,306.486511 
	C126.947891,306.589539 130.688110,306.409332 134.745590,306.767395 
	C135.066132,306.945526 135.003555,306.989319 135.017212,306.953674 
	C136.014008,310.980286 135.283813,315.099854 135.257355,319.628510 
	C134.896240,320.361450 134.718872,320.655609 134.287186,321.029053 
	C119.330391,321.961945 104.616318,321.303375 89.444633,321.285034 
	C88.371284,320.962006 87.761696,320.800537 87.029495,320.342346 
	C86.069061,315.975800 86.668686,311.865814 86.766830,307.346191 
	C86.969582,306.916901 86.995979,306.987793 86.964020,306.967590 
	C91.667664,305.956482 96.469803,306.832062 101.588547,306.172333 
	C109.243179,286.451630 116.497795,266.981903 123.840675,247.545547 
	C129.816803,231.726898 135.941559,215.964157 141.831802,200.113953 
	C142.202545,199.116287 143.612000,197.436188 141.391052,196.149948 
	C139.006439,196.898026 136.867020,196.350601 134.349167,196.255707 
	C132.922165,195.704453 131.262650,196.820541 130.940552,194.406937 
	C130.086212,190.305435 130.666382,186.534378 130.747528,182.351440 
	C133.095413,179.996735 135.698196,181.406860 138.481628,180.958282 
	C145.325317,180.018036 151.774948,180.698868 158.652557,180.754181 
	C165.384811,181.314499 169.525009,184.310196 171.812073,190.356308 
	C179.773376,211.403030 187.926056,232.377426 196.024597,253.372162 
	C202.675110,270.613007 209.352112,287.843658 216.012573,305.452118 
	C220.691803,307.382782 225.525726,306.040802 230.673203,306.756897 
	C231.083099,306.951355 231.012192,306.986450 231.027954,306.950165 
	C231.974442,311.311432 231.343063,315.751465 231.080719,320.523315 
	C230.757370,320.873932 230.435135,321.050751 230.251755,321.062744 
	C219.498627,322.007904 208.907227,321.276093 198.327545,321.474121 
	C194.187607,321.551666 190.043701,321.546509 185.438660,321.281433 
	C184.364548,320.957062 183.753876,320.796967 183.021698,320.338776 
	C182.080078,316.321533 182.670273,312.559357 182.735062,308.382812 
	C183.047501,307.358826 183.182602,306.770691 183.625137,306.162628 
	C188.395035,306.901306 192.886322,306.382965 197.690903,306.179230 
	C198.017303,305.912628 197.978317,306.012939 197.928040,305.993774 
	C198.040253,305.832184 198.202759,305.689728 198.256775,305.241821 
	C194.762054,296.574860 190.610199,288.422760 188.246338,279.781555 
	C186.539505,273.542175 183.349792,272.318542 177.547760,273.034058 
	C170.351608,274.032806 163.551407,273.282501 156.325867,273.238098 
z"/>
<path fill="none" opacity="1.000000" stroke="none"
	d="
M269.538818,199.146637 
	C269.959442,232.998901 269.997162,267.063446 269.978394,301.596985 
	C268.879395,301.723114 269.004730,300.840088 269.005859,300.036835 
	C269.052979,266.477539 269.104706,232.918243 269.538818,199.146637 
z"/>
<path fill="#DBF9FA" opacity="1.000000" stroke="none" 
	d="
M377.448425,215.249557 
	C376.678040,213.516647 377.110901,212.192001 378.286926,211.071686 
	C379.389618,211.183243 378.966919,212.072205 378.967438,212.565720 
	C378.998474,242.440292 379.001038,272.314880 378.977356,302.189453 
	C378.976440,303.326080 378.691406,304.462494 378.156677,305.811890 
	C377.801239,275.818726 377.827850,245.612625 377.448425,215.249557 
z"/>
<path fill="#EDFCFD" opacity="1.000000" stroke="none" 
	d="
M288.113708,305.556610 
	C286.521271,305.319183 287.028656,303.795715 287.027466,302.567963 
	C286.998077,272.098389 287.004395,241.628754 287.004395,211.087646 
	C288.782959,211.039093 288.573608,212.470505 288.960449,213.737152 
	C287.007324,215.215744 288.057861,217.057236 288.054474,218.509140 
	C287.987091,247.370560 288.010895,276.232178 288.113708,305.556610 
z"/>
<path fill="#89E9ED" opacity="1.000000" stroke="none" 
	d="
M395.920593,268.569458 
	C394.809174,267.959320 395.007721,266.589172 395.007294,265.280060 
	C395.000031,243.068008 394.997406,220.855957 395.022827,198.643936 
	C395.023499,198.051712 395.348907,197.459854 395.807587,196.977127 
	C396.056580,220.757492 396.020874,244.428574 395.920593,268.569458 
z"/>
<path fill="none" opacity="1.000000" stroke="none"
	d="
M365.144043,321.458679 
	C379.985046,321.059814 395.038208,321.044220 410.558594,321.072235 
	C410.677185,322.163696 409.785370,321.995758 408.996704,321.993286 
	C394.449829,321.947937 379.902985,321.894043 365.144043,321.458679 
z"/>
<path fill="#89E9ED" opacity="1.000000" stroke="none" 
	d="
M396.070496,305.546448 
	C393.858032,298.961273 395.218201,291.773804 395.600555,284.300598 
	C395.908417,291.005432 395.960815,298.041229 396.070496,305.546448 
z"/>
<path fill="#A0EEF1" opacity="1.000000" stroke="none" 
	d="
M134.878418,306.547791 
	C130.017868,306.849945 124.969452,306.760284 119.922279,306.624390 
	C119.798080,306.621033 119.561195,306.082520 119.606155,305.835297 
	C119.651711,305.584747 119.982224,305.386047 120.510185,305.096283 
	C125.293762,307.354523 130.118149,305.197266 134.878418,306.547791 
z"/>
<path fill="#9FEDF0" opacity="1.000000" stroke="none" 
	d="
M269.591888,305.054565 
	C269.863525,306.958801 268.360138,307.019745 266.823578,306.985962 
	C262.744720,306.896301 258.666290,306.787567 254.265289,306.415924 
	C259.004852,305.382996 264.205017,306.978485 269.591888,305.054565 
z"/>
<path fill="#9FEDF0" opacity="1.000000" stroke="none" 
	d="
M411.940369,306.599792 
	C406.955597,306.741089 401.713287,307.558075 396.253052,306.190857 
	C401.224609,305.980957 406.469574,306.097870 411.940369,306.599792 
z"/>
<path fill="#A3EEF1" opacity="1.000000" stroke="none" 
	d="
M101.490936,305.951416 
	C97.409477,308.202423 92.542328,306.401917 87.400269,306.987915 
	C91.512764,304.865295 96.349503,306.577515 101.490936,305.951416 
z"/>
<path fill="#A0EEF1" opacity="1.000000" stroke="none" 
	d="
M230.882538,306.558838 
	C226.231537,306.787292 221.351746,307.521576 216.267548,306.159790 
	C220.899170,305.939056 225.790573,306.052673 230.882538,306.558838 
z"/>
<path fill="#FFFFFF" opacity="1.000000" stroke="none" 
	d="
M255.117081,196.437439 
	C259.783783,196.017502 264.669830,195.568161 269.729309,196.688416 
	C265.058838,196.984955 260.194000,196.903442 255.117081,196.437439 
z"/>
<path fill="#AAEFF2" opacity="1.000000" stroke="none" 
	d="
M231.219879,320.855408 
	C230.838348,316.533173 230.919327,312.192383 231.022003,307.382751 
	C232.978714,311.475861 231.819092,316.179840 231.219879,320.855408 
z"/>
<path fill="#98ECEF" opacity="1.000000" stroke="none" 
	d="
M302.362793,320.741608 
	C301.959015,316.519623 301.979340,312.186707 302.025696,307.385681 
	C304.013763,311.396545 302.691650,316.051636 302.362793,320.741608 
z"/>
<path fill="#A3EEF1" opacity="1.000000" stroke="none" 
	d="
M363.562073,307.115784 
	C363.993073,311.260895 364.032806,315.606140 364.103455,320.407166 
	C361.646820,316.501312 363.529083,311.828918 363.562073,307.115784 
z"/>
<path fill="#9FEDF0" opacity="1.000000" stroke="none" 
	d="
M197.551178,305.952545 
	C193.644073,308.038971 189.078018,306.789093 184.254852,306.411499 
	C188.316727,306.092651 192.700897,306.042542 197.551178,305.952545 
z"/>
<path fill="#DBF9FA" opacity="1.000000" stroke="none" 
	d="
M135.457092,319.864502 
	C135.040375,315.996552 135.007126,311.925842 135.002365,307.386536 
	C137.163116,311.047577 135.570236,315.413849 135.457092,319.864502 
z"/>
<path fill="#DBF9FA" opacity="1.000000" stroke="none" 
	d="
M86.575317,307.109131 
	C86.973831,310.983551 86.978081,315.050201 86.944611,319.581238 
	C84.935715,315.896027 86.361969,311.552948 86.575317,307.109131 
z"/>
<path fill="#E9FCFC" opacity="1.000000" stroke="none" 
	d="
M252.571136,307.095306 
	C252.966446,310.963348 252.974777,315.036804 252.940552,319.574280 
	C250.945969,315.888489 252.352692,311.550476 252.571136,307.095306 
z"/>
<path fill="#A0EEF1" opacity="1.000000" stroke="none" 
	d="
M376.634277,306.075378 
	C373.123871,307.910065 368.920502,306.552307 364.381226,306.979156 
	C367.865234,304.888092 372.096161,306.518066 376.634277,306.075378 
z"/>
<path fill="#F8FEFE" opacity="1.000000" stroke="none" 
	d="
M413.469238,319.844025 
	C413.042816,316.053741 412.995178,312.057495 412.920380,307.608398 
	C415.204041,311.163940 413.549194,315.475708 413.469238,319.844025 
z"/>
<path fill="#FFFFFF" opacity="1.000000" stroke="none" 
	d="
M396.419556,282.907043 
	C395.994904,279.018707 395.954010,274.918488 395.974487,270.349670 
	C398.125854,274.042603 396.633301,278.418640 396.419556,282.907043 
z"/>
<path fill="#A0EEF1" opacity="1.000000" stroke="none" 
	d="
M301.885437,306.561584 
	C297.915802,306.850922 293.746185,306.749786 289.242279,306.391968 
	C293.167145,306.147247 297.426300,306.159180 301.885437,306.561584 
z"/>
<path fill="#F8FEFE" opacity="1.000000" stroke="none" 
	d="
M413.429077,194.894592 
	C413.019165,191.091080 412.992584,187.078293 412.948608,182.612061 
	C415.140991,186.199387 413.604614,190.503708 413.429077,194.894592 
z"/>
<path fill="#E9FCFC" opacity="1.000000" stroke="none" 
	d="
M252.549530,182.123596 
	C252.955841,185.990387 252.977234,190.060028 252.958588,194.595184 
	C250.908157,190.920090 252.390213,186.572708 252.549530,182.123596 
z"/>
<path fill="#F6FDFE" opacity="1.000000" stroke="none" 
	d="
M130.555176,182.123810 
	C130.947586,185.649979 130.959229,189.380920 130.932983,193.573441 
	C129.046829,190.231857 130.289795,186.238403 130.555176,182.123810 
z"/>
<path fill="#F3FDFD" opacity="1.000000" stroke="none" 
	d="
M182.535370,308.151917 
	C182.937393,311.670593 182.962387,315.394196 182.943787,319.579224 
	C181.032272,316.248962 182.314789,312.257233 182.535370,308.151917 
z"/>
<path fill="#FFFFFF" opacity="1.000000" stroke="none" 
	d="
M400.139709,196.456818 
	C403.010193,196.046631 406.078552,196.009720 409.603271,196.027634 
	C406.945557,197.978027 403.585693,196.677734 400.139709,196.456818 
z"/>
<path fill="#FFFFFF" opacity="1.000000" stroke="none" 
	d="
M134.109894,196.430786 
	C136.014771,196.038254 138.096451,196.007050 140.621490,196.023270 
	C138.971146,197.867828 136.567871,196.756363 134.109894,196.430786 
z"/>
<path fill="#F3FDFD" opacity="1.000000" stroke="none" 
	d="
M331.103821,307.424194 
	C332.368896,307.050171 333.787506,307.021118 335.629578,307.034515 
	C334.676208,308.843903 332.891083,307.782318 331.103821,307.424194 
z"/>
<path fill="#C5F4F6" opacity="1.000000" stroke="none" 
	d="
M340.357300,304.988129 
	C340.188873,304.506775 340.326019,303.943695 340.739227,303.248474 
	C340.897797,303.713043 340.780334,304.309692 340.357300,304.988129 
z"/>
<path fill="#DBF9FA" opacity="1.000000" stroke="none" 
	d="
M376.311401,216.019012 
	C376.208649,215.767258 376.367615,215.437378 376.803741,215.062012 
	C376.911621,215.324661 376.742371,215.632782 376.311401,216.019012 
z"/>
<path fill="#9FEDF0" opacity="1.000000" stroke="none" 
	d="
M198.070084,305.193176 
	C198.288757,305.152954 198.445587,305.361969 198.553207,305.593781 
	C198.570755,305.631561 198.370789,305.770294 198.074554,305.918518 
	C197.915787,305.799744 197.953812,305.624878 198.070084,305.193176 
z"/>
<path fill="#C5F4F6" opacity="1.000000" stroke="none" 
	d="
M339.017456,305.936401 
	C338.957855,305.591919 339.220032,305.306580 339.778656,305.030518 
	C339.829803,305.358368 339.584503,305.676941 339.017456,305.936401 
z"/>
<path fill="#ffffff" opacity="1.000000" stroke="none"
	d="
M137.846466,257.465637
	C144.949051,239.405350 151.802429,221.763626 159.153091,202.841797
	C166.081772,221.420990 172.662247,239.066513 179.577301,256.881744
	C180.033020,259.605530 178.182816,259.477356 176.520111,259.479736
	C164.411362,259.497101 152.302567,259.499481 140.193787,259.484039
	C139.000519,259.482513 137.802200,259.489685 137.846466,257.465637
z"/>
<path fill="#8CEAED" opacity="1.000000" stroke="none" 
	d="
M137.802155,257.267334 
	C137.984650,258.115173 138.061615,258.995117 139.504639,258.992676 
	C152.380951,258.970886 165.257401,258.981812 178.133408,258.912842 
	C178.651215,258.910095 179.165253,258.205505 179.796463,257.439697 
	C181.842712,259.273041 180.450180,259.948700 178.411331,259.956146 
	C165.378006,260.003815 152.344391,259.990723 139.310959,259.957062 
	C137.752640,259.953033 136.686859,259.347504 137.802155,257.267334 
z"/>
</svg>