<svg version="1.1" id="Layer_1" xmlns="http://www.w3.org/2000/svg" xmlns:xlink="http://www.w3.org/1999/xlink" x="0px" y="0px"
	 width="100%" viewBox="0 0 500 500" enable-background="new 0 0 500 500" xml:space="preserve">
<path fill="#FFFFFF" opacity="1.000000" stroke="none" 
	d="
M1.000000,190.000000 
	C1.000000,128.015350 1.032679,66.530640 0.910345,5.046245 
	C0.903736,1.724686 1.433185,0.897223 4.952006,0.899697 
	C168.910980,1.014986 332.870056,1.018339 496.829010,0.886837 
	C500.652710,0.883770 501.080353,1.939829 501.078491,5.327012 
	C500.988739,169.119400 500.987244,332.911835 501.086487,496.704193 
	C501.088593,500.182220 500.532043,501.109375 496.797791,501.106537 
	C333.005463,500.983124 169.213013,500.982422 5.420672,501.105713 
	C1.494155,501.108673 0.910623,500.026550 0.914383,496.422760 
	C1.020783,394.448608 1.000000,292.474274 1.000000,190.000000 
z"/>
<path fill="#5EE1E6" opacity="1.000000" stroke="none" 
	d="
M321.987732,42.021408 
	C357.580353,62.682301 392.974030,82.963539 428.048645,103.782326 
	C444.076050,113.295517 452.819366,128.063217 452.894501,146.764267 
	C453.169617,215.257858 452.922424,283.753387 453.053497,352.247833 
	C453.093170,372.988312 444.104004,388.677887 426.632660,398.980316 
	C377.730347,427.816864 328.542542,456.169159 279.475098,484.725769 
	C260.313995,495.877289 241.444962,495.513306 222.280228,484.291992 
	C174.006165,456.026611 125.551888,428.069092 77.183968,399.963867 
	C58.410103,389.054871 49.235420,372.726929 49.260799,350.983734 
	C49.339779,283.322388 49.174244,215.660599 49.358013,147.999680 
	C49.410946,128.509521 58.110809,113.320984 74.972275,103.445801 
	C124.823906,74.249374 174.737198,45.156128 224.791412,16.308882 
	C241.021896,6.954925 258.138977,5.976930 274.877136,15.021900 
	C290.688354,23.565977 306.081451,32.883812 321.987732,42.021408 
z"/>
<path fill="#FFFFFF" opacity="1.000000" stroke="none" 
	d="
M69.116623,204.000000 
	C69.116646,186.667633 69.318268,169.832153 69.058014,153.003799 
	C68.813133,137.168900 75.269241,126.034531 89.282249,118.046684 
	C137.736115,90.426514 185.893219,62.284355 234.078873,34.196110 
	C245.327896,27.638865 256.285553,27.227522 267.585999,33.788998 
	C317.258911,62.630966 366.976135,91.396622 416.639496,120.254967 
	C427.447998,126.535561 433.050568,136.076096 433.058472,148.620987 
	C433.101410,216.783691 433.095856,284.946442 433.065826,353.109192 
	C433.060303,365.639160 427.593079,375.336700 416.824036,381.609283 
	C367.190338,410.519043 317.478058,439.293823 267.772583,468.080231 
	C256.736755,474.471558 245.632050,474.352112 234.602417,467.969269 
	C209.816772,453.625732 185.034042,439.277100 160.256058,424.920380 
	C136.342575,411.064606 112.576385,396.946564 88.472008,383.431519 
	C75.127975,375.949646 69.069870,364.981079 69.091141,349.991577 
	C69.159981,301.494476 69.116653,252.997208 69.116623,204.000000 
z"/>
<path fill="#5FE1E6" opacity="1.000000" stroke="none" 
	d="
M410.543152,320.930664 
	C396.254150,320.989319 382.424316,320.864868 368.599945,321.085083 
	C364.435272,321.151428 362.725311,319.776978 363.157867,315.637695 
	C363.330109,313.989471 363.231598,312.307465 363.184174,310.642883 
	C363.093414,307.457794 364.683960,306.060242 367.780273,306.189606 
	C367.946533,306.196564 368.113617,306.193146 368.279999,306.186646 
	C378.899475,305.770508 378.899475,305.770447 378.899475,294.915222 
	C378.899475,267.263367 378.899475,239.611511 378.899475,211.947098 
	C376.967010,211.683105 377.170105,213.249924 376.794250,214.178574 
	C365.249817,242.702698 353.673523,271.214203 342.262634,299.791779 
	C340.467773,304.286835 338.031616,307.127411 332.845825,307.097046 
	C327.803986,307.067505 325.531403,304.061829 323.852264,299.879852 
	C312.324585,271.169647 300.728088,242.487091 289.149506,213.797348 
	C288.739197,212.780640 288.712555,211.514130 287.049683,210.818054 
	C287.049683,217.443100 287.049652,223.854828 287.049683,230.266556 
	C287.049713,253.923782 287.139160,277.581696 286.961700,301.237579 
	C286.932159,305.175964 288.019501,306.790466 291.976685,306.210358 
	C293.118347,306.042999 294.305359,306.183380 295.471558,306.185242 
	C302.718628,306.196838 302.844330,306.319214 302.856598,313.360687 
	C302.869934,321.003143 302.869934,321.004211 295.221619,321.004730 
	C282.893219,321.005524 270.563568,320.907837 258.237152,321.063995 
	C254.559479,321.110565 252.734924,320.294464 252.855225,316.105408 
	C253.171753,305.083557 251.669083,306.271973 262.775299,306.177490 
	C271.031769,306.107239 270.039154,307.170410 270.048309,299.103210 
	C270.085480,266.449615 269.990295,233.795578 270.155945,201.142776 
	C270.176788,197.029907 269.138367,195.228455 264.928284,195.929947 
	C264.279877,196.037979 263.597809,195.955200 262.931610,195.943436 
	C251.809723,195.747101 252.955139,198.152863 252.922348,184.711212 
	C252.916153,182.165817 254.106812,181.092300 256.567841,181.098099 
	C266.230469,181.120819 275.895020,181.003235 285.555084,181.164246 
	C290.263824,181.242737 293.033997,184.156540 294.753937,188.386597 
	C305.842377,215.657730 317.728088,242.603607 328.101898,270.166504 
	C329.550262,274.014832 331.026154,277.852814 333.004059,283.047485 
	C335.692108,275.880493 337.772614,269.873016 340.178345,263.998810 
	C350.516602,238.755051 360.983276,213.563904 371.322327,188.320465 
	C373.434723,183.162903 377.111908,180.977997 382.580017,181.061325 
	C390.908081,181.188232 399.243835,181.251846 407.567688,181.025040 
	C411.604034,180.915039 413.222076,182.121765 413.095612,186.395767 
	C412.781555,197.010880 414.084442,195.884842 403.838470,195.943924 
	C402.339111,195.952576 400.830475,196.053848 399.342316,195.925140 
	C396.774445,195.703049 395.760834,196.695267 395.843781,199.337891 
	C395.995209,204.164505 395.883057,208.999329 395.882996,213.830734 
	C395.882629,242.819168 395.988190,271.808411 395.772888,300.795227 
	C395.739380,305.306885 397.068359,306.888153 401.387787,306.207520 
	C402.363159,306.053833 403.406128,306.048706 404.378723,306.210754 
	C407.180389,306.677582 411.431183,304.533813 412.481934,307.934906 
	C413.682556,311.821075 414.046326,316.398865 411.890808,320.469910 
	C411.769592,320.698822 411.307709,320.747314 410.543152,320.930664 
z"/>
<path fill="#5FE2E6" opacity="1.000000" stroke="none" 
	d="
M165.405624,182.234436 
	C169.250931,184.103577 170.461304,187.509918 171.703827,190.737350 
	C185.865997,227.523560 200.044815,264.304077 213.942703,301.190277 
	C215.485992,305.286346 217.489517,306.806274 221.536911,306.190125 
	C221.862595,306.140533 222.202347,306.183472 222.535568,306.183563 
	C231.580704,306.186096 234.049210,309.529724 231.733047,318.464050 
	C231.203323,320.507477 229.929550,321.014160 228.069397,321.011414 
	C214.240967,320.990875 200.412445,320.978699 186.584076,321.014648 
	C184.078232,321.021179 182.837479,319.980011 182.972610,317.434052 
	C182.981400,317.268036 182.966904,317.100952 182.967667,316.934357 
	C183.023712,304.490082 181.808228,306.298889 192.974045,306.188324 
	C198.737289,306.131226 198.775970,306.109222 196.757477,300.710602 
	C193.786835,292.765411 190.703293,284.860565 187.869904,276.866943 
	C186.828857,273.929901 185.299484,272.772308 182.060303,272.808289 
	C166.734238,272.978485 151.404373,272.968628 136.077942,272.815399 
	C132.879288,272.783417 131.377106,273.838959 130.330948,276.870117 
	C127.401665,285.357635 124.181709,293.747650 120.935623,302.121521 
	C119.826332,304.983154 119.909355,306.597717 123.586334,306.204712 
	C124.904083,306.063843 126.249641,306.182922 127.582504,306.183624 
	C135.112762,306.187653 135.112762,306.187653 135.110870,313.916016 
	C135.109146,321.002655 135.109146,321.004608 128.131836,321.005463 
	C115.969437,321.006927 103.805000,320.881256 91.645844,321.079803 
	C87.891998,321.141113 86.725082,319.888672 86.818550,316.200256 
	C87.101707,305.027191 85.627098,306.064117 96.618149,306.282623 
	C100.749352,306.364807 102.683998,305.137878 104.176834,301.128510 
	C116.538109,267.929291 129.185043,234.836563 141.712570,201.699127 
	C143.866196,196.002457 143.793961,195.975143 137.910202,195.945923 
	C130.982468,195.911530 130.982468,195.911530 130.972992,189.135025 
	C130.961746,181.092880 130.967606,180.897919 139.189423,181.144913 
	C147.808792,181.403854 156.493713,180.008530 165.405624,182.234436 
z"/>
<path fill="#FDFFFF" opacity="1.000000" stroke="none" 
	d="
M149.024841,259.128967 
	C137.149628,259.128113 137.096283,259.108185 141.007126,248.645203 
	C146.470581,234.028366 152.010941,219.440186 157.569916,204.859375 
	C157.889038,204.022354 157.740952,202.778915 159.562637,202.333801 
	C163.279785,212.116440 167.042526,221.948883 170.750992,231.801758 
	C173.557953,239.259460 176.093246,246.827087 179.141144,254.183487 
	C180.927567,258.495178 179.530746,259.286774 175.461258,259.190796 
	C166.818695,258.987000 158.167999,259.128754 149.024841,259.128967 
z"/>
</svg>